<?xml version="1.0" encoding="UTF-8" standalone="no"?><!DOCTYPE svg PUBLIC "-//W3C//DTD SVG 1.1//EN" "http://www.w3.org/Graphics/SVG/1.1/DTD/svg11.dtd"><svg xmlns="http://www.w3.org/2000/svg" xmlns:xlink="http://www.w3.org/1999/xlink" version="1.1" width="30" height="30" viewBox="0 0 30 30">
<desc>Created with SVGMaker Editor 2.2.3</desc>
<defs>
</defs>
<path transform="translate(0,0)" style="fill: rgb(255,255,255)" stroke-linecap="round" d="M 15.0039 3 C 8.3749 3 3 8.373 3 15 C 3 21.627 8.3749 27 15.0039 27 C 25.0139 27 27.2691 17.707 26.3301 13 L 25 13 L 22.7324 13 L 15 13 L 15 17 L 22.7383 17 C 21.8487 20.4483 18.726 23 15 23 C 10.582 23 7 19.418 7 15 C 7 10.582 10.582 7 15 7 C 17.009 7 18.8391 7.7458 20.2441 8.9688 L 23.0859 6.1289 C 20.9519 4.1849 18.1169 3 15.0039 3 Z"/>
</svg>