<?xml version="1.0" encoding="UTF-8"?>
<svg version="1.1" xmlns="http://www.w3.org/2000/svg" width="512" height="512">
<path d="M0 0 C1.14339844 -0.01933594 2.28679687 -0.03867187 3.46484375 -0.05859375 C13.37485234 1.30793295 19.28525403 8.08524658 26.02075195 14.87817383 C27.09997067 15.95196488 28.18003682 17.02490477 29.26087952 18.09706116 C32.17898348 20.99700782 35.08438637 23.90937026 37.98705697 26.82475495 C41.03323555 29.88109799 44.08920431 32.9276273 47.14360046 35.97575378 C52.26904586 41.09393391 57.38602666 46.22046305 62.49829102 51.35180664 C68.40187839 57.27717212 74.31975307 63.18797458 80.24523193 69.09144193 C85.34153575 74.16957374 90.42997807 79.25548424 95.51197213 84.34793681 C98.54329513 87.3854833 101.57722602 90.42029244 104.61828041 93.44809914 C107.47642917 96.29466346 110.32455882 99.15089244 113.16536522 102.01476097 C114.20718046 103.06184891 115.25238436 104.10557819 116.30125427 105.14559937 C127.40226708 116.16158468 127.40226708 116.16158468 128.49609375 124.90234375 C128.50556872 133.3255902 128.11292625 139.18412963 122.19140625 145.40234375 C116.51301653 150.65136563 112.09149273 152.72604473 104.25 152.8125 C103.08855469 152.84085938 101.92710937 152.86921875 100.73046875 152.8984375 C92.90733893 151.91533918 87.63982645 147.60424897 82.27929688 142.10839844 C81.65390015 141.48358582 81.02850342 140.85877319 80.38415527 140.21502686 C78.34021489 138.16832235 76.31077396 136.10786704 74.28125 134.046875 C72.85866578 132.61682248 71.4351899 131.18765646 70.01086426 129.75933838 C66.28004355 126.01330792 62.56139658 122.25541875 58.84521484 118.49487305 C55.04475881 114.65336396 51.23283232 110.823274 47.421875 106.9921875 C39.95752336 99.48504721 32.50599143 91.96532015 25.0625 84.4375 C25.03903747 103.40615718 25.0214557 122.37481138 25.01068783 141.34348011 C25.00555305 150.15290121 24.9985647 158.96231324 24.98706055 167.77172852 C24.97702693 175.45879949 24.97062613 183.14586389 24.96841151 190.83294123 C24.96711899 194.89517989 24.96412726 198.95739976 24.95676994 203.01963234 C24.84942822 264.85225335 35.86561516 318.98847075 81.0625 364.4375 C104.46652413 385.87900729 131.44846614 401.06074945 162.0625 409.4375 C162.76793945 409.63327637 163.47337891 409.82905273 164.20019531 410.03076172 C172.56633453 412.26994578 180.91983097 413.49356512 189.5390625 414.20703125 C190.29249435 414.26956589 191.04592621 414.33210052 191.82218933 414.39653015 C195.62479124 414.70463283 199.4271247 414.9832717 203.23461914 415.22338867 C211.79779853 415.80963279 218.5761745 416.50610326 225.3046875 422.40234375 C225.84351563 423.05332031 226.38234375 423.70429688 226.9375 424.375 C227.49179687 425.02339844 228.04609375 425.67179687 228.6171875 426.33984375 C233.09662097 432.84107557 232.73713728 439.80890917 232.0625 447.4375 C230.38164417 454.09709333 225.59871678 458.62297447 220.0625 462.4375 C195.37014387 474.03313845 152.541327 459.9607069 128.18725586 451.46533203 C109.90321515 444.81956611 91.73915992 436.0507312 76.0625 424.4375 C75.07765625 423.72207031 74.0928125 423.00664062 73.078125 422.26953125 C63.13672093 414.93963815 53.62425038 407.3551661 45.0625 398.4375 C44.258125 397.633125 43.45375 396.82875 42.625 396 C41.779375 395.154375 40.93375 394.30875 40.0625 393.4375 C39.45277344 392.87417969 38.84304688 392.31085938 38.21484375 391.73046875 C23.13540919 377.41732125 9.91364996 358.28282922 1.0625 339.4375 C1.0625 338.7775 1.0625 338.1175 1.0625 337.4375 C0.4025 337.4375 -0.2575 337.4375 -0.9375 337.4375 C-1.17984375 338.26894531 -1.4221875 339.10039062 -1.671875 339.95703125 C-8.4049169 358.47289647 -22.8809962 375.77700818 -36.4140625 389.7734375 C-38.94508724 392.36953492 -38.94508724 392.36953492 -41.05078125 395.08984375 C-42.75657375 397.21237231 -44.42290107 398.879878 -46.5 400.625 C-48.81001171 402.5887211 -51.07063755 404.56394722 -53.26953125 406.65234375 C-84.99792811 436.72365076 -127.33182605 454.78663042 -169.9375 462.4375 C-170.96399658 462.63230957 -170.96399658 462.63230957 -172.01123047 462.83105469 C-181.58059485 464.59519777 -191.23399133 464.68935903 -200.9375 464.8125 C-202.19127441 464.83868408 -203.44504883 464.86486816 -204.73681641 464.8918457 C-213.11470759 464.90702508 -218.81435648 464.05063796 -225.1796875 458.47265625 C-225.71851563 457.82167969 -226.25734375 457.17070312 -226.8125 456.5 C-227.36679688 455.85160156 -227.92109375 455.20320313 -228.4921875 454.53515625 C-232.97162097 448.03392443 -232.61213728 441.06609083 -231.9375 433.4375 C-230.25664417 426.77790667 -225.47371678 422.25202553 -219.9375 418.4375 C-215.88239554 416.49349515 -212.28950908 416.05941591 -207.8203125 415.76171875 C-206.40570103 415.65870771 -204.99115232 415.55483195 -203.57666016 415.45019531 C-202.47152069 415.37170349 -202.47152069 415.37170349 -201.34405518 415.29162598 C-152.53995337 411.72737681 -105.47481818 392.91559943 -72.48046875 355.59375 C-32.90027715 309.65871776 -24.72969578 259.37835085 -24.83610606 200.6255095 C-24.84243816 196.52831076 -24.84295108 192.43111096 -24.84413147 188.33390808 C-24.84721614 180.60676985 -24.85539016 172.87964608 -24.86548096 165.15251416 C-24.87673202 156.34208599 -24.88217501 147.53165706 -24.88717639 138.72122347 C-24.89757579 120.62664084 -24.91511864 102.53207159 -24.9375 84.4375 C-25.73628067 85.24516312 -26.53506134 86.05282623 -27.35804749 86.88496399 C-34.89470585 94.5027818 -42.44195926 102.10996033 -49.99965763 109.70690632 C-53.88461731 113.61272204 -57.76577593 117.52216308 -61.63842773 121.44018555 C-65.37733191 125.22261669 -69.12598154 128.99513356 -72.88152885 132.76103783 C-74.31113003 134.19801794 -75.73721152 135.63850871 -77.15965462 137.08257484 C-79.15584751 139.10789121 -81.1643011 141.12025314 -83.17602539 143.13012695 C-83.75865646 143.72713913 -84.34128754 144.32415131 -84.9415741 144.93925476 C-90.54800088 150.49028988 -95.81106253 152.8659292 -103.875 152.875 C-111.11803756 152.68318227 -115.64346949 151.57436007 -120.90234375 146.56640625 C-126.15136563 140.88801653 -128.22604473 136.46649273 -128.3125 128.625 C-128.34085937 127.46355469 -128.36921875 126.30210937 -128.3984375 125.10546875 C-127.14757738 115.15159032 -120.29685498 109.22178749 -113.49682617 102.47924805 C-112.42303512 101.40002933 -111.35009523 100.31996318 -110.27793884 99.23912048 C-107.37799218 96.32101652 -104.46562974 93.41561363 -101.55024505 90.51294303 C-98.49390201 87.46676445 -95.4473727 84.41079569 -92.39924622 81.35639954 C-87.28106609 76.23095414 -82.15453695 71.11397334 -77.02319336 66.00170898 C-71.09782788 60.09812161 -65.18702542 54.18024693 -59.28355807 48.25476807 C-54.20542626 43.15846425 -49.11951576 38.07002193 -44.02706319 32.98802787 C-40.9895167 29.95670487 -37.95470756 26.92277398 -34.92690086 23.88171959 C-32.08033654 21.02357083 -29.22410756 18.17544118 -26.36023903 15.33463478 C-25.31315109 14.29281954 -24.26942181 13.24761564 -23.22940063 12.19874573 C-15.90037362 4.81314921 -10.81586678 0.01216633 0 0 Z " fill="#000000" transform="translate(255.9375,23.5625)"/>
</svg>
