<?xml version="1.0" encoding="UTF-8" standalone="no"?><!DOCTYPE svg PUBLIC "-//W3C//DTD SVG 1.1//EN" "http://www.w3.org/Graphics/SVG/1.1/DTD/svg11.dtd"><svg xmlns="http://www.w3.org/2000/svg" xmlns:xlink="http://www.w3.org/1999/xlink" version="1.1" width="512" height="512" viewBox="0 0 512 512">
<desc>Created with SVGMaker Editor 2.2.3</desc>
<defs>
</defs>
<path transform="translate(0,0)" style="fill: rgb(255,255,255)" stroke-linecap="round" d="M255.9375 22.6136C257.0809 22.5943 258.2243 22.5749 259.4023 22.555 269.3124 23.9215 275.2228 30.6988 281.9583 37.4918 283.0375 38.5656 284.1175 39.6385 285.1984 40.7107 288.1165 43.6106 291.0219 46.523 293.9246 49.4384 296.9707 52.4947 300.0267 55.5412 303.0811 58.5894 308.2065 63.7075 313.3235 68.8341 318.4358 73.9654 324.3394 79.8908 330.2573 85.8016 336.1827 91.705 341.279 96.7832 346.3675 101.8691 351.4495 106.9615 354.4808 109.9991 357.5147 113.0339 360.5558 116.0617 363.4139 118.9083 366.2621 121.7645 369.1029 124.6284 370.1447 125.6754 371.1899 126.7192 372.2388 127.7592 383.3398 138.7752 383.3398 138.7752 384.4336 147.5159 384.4431 155.9392 384.0504 161.7977 378.1289 168.0159 372.4505 173.265 368.029 175.3396 360.1875 175.4261 359.0261 175.4545 357.8646 175.4828 356.668 175.512 348.8448 174.5289 343.5773 170.2178 338.2168 164.722 337.5914 164.0972 336.966 163.4724 336.3217 162.8286 334.2777 160.7819 332.2483 158.7215 330.2188 156.6605 328.7962 155.2304 327.3727 153.8013 325.9484 152.3729 322.2175 148.6269 318.4989 144.869 314.7827 141.1085 310.9823 137.267 307.1703 133.4369 303.3594 129.6058 295.895 122.0986 288.4435 114.5789 281 107.0511 280.9765 126.0198 280.959 144.9884 280.9482 163.9571 280.9431 172.7665 280.9361 181.5759 280.9246 190.3853 280.9145 198.0724 280.9081 205.7595 280.9059 213.4465 280.9046 217.5088 280.9016 221.571 280.8943 225.6332 280.7869 287.4659 291.8031 341.6021 337 387.0511 360.404 408.4926 387.386 423.6743 418 432.0511 418.7054 432.2469 419.4109 432.4427 420.1377 432.6444 428.5038 434.8835 436.8573 436.1072 445.4766 436.8206 446.23 436.8832 446.9834 436.9457 447.7597 437.0101 451.5623 437.3182 455.3646 437.5969 459.1721 437.837 467.7353 438.4232 474.5137 439.1197 481.2422 445.0159 481.781 445.6669 482.3198 446.3179 482.875 446.9886 483.4293 447.637 483.9836 448.2854 484.5547 448.9534 489.0341 455.4547 488.6746 462.4225 488 470.0511 486.3191 476.7107 481.5362 481.2366 476 485.0511 451.3076 496.6467 408.4788 482.5743 384.1248 474.0789 365.8407 467.4332 347.6767 458.6643 332 447.0511 331.0152 446.3357 330.0303 445.6202 329.0156 444.8831 319.0742 437.5532 309.5618 429.9688 301 421.0511 300.1956 420.2467 299.3912 419.4424 298.5625 418.6136 297.7169 417.768 296.8713 416.9223 296 416.0511 295.3903 415.4878 294.7805 414.9245 294.1523 414.3441 279.0729 400.0309 265.8511 380.8964 257 362.0511 257 361.3911 257 360.7311 257 360.0511 256.34 360.0511 255.68 360.0511 255 360.0511 254.7577 360.8825 254.5153 361.714 254.2656 362.5706 247.5326 381.0865 233.0565 398.3906 219.5234 412.387 216.9924 414.9831 216.9924 414.9831 214.8867 417.7034 213.1809 419.826 211.5146 421.4935 209.4375 423.2386 207.1275 425.2023 204.8669 427.1775 202.668 429.2659 170.9396 459.3373 128.6057 477.4002 86 485.0511 84.9735 485.2459 84.9735 485.2459 83.9263 485.4447 74.3569 487.2088 64.7035 487.303 55 487.4261 53.7462 487.4523 52.4925 487.4785 51.2007 487.5054 42.8228 487.5206 37.1231 486.6642 30.7578 481.0863 30.219 480.4353 29.6802 479.7843 29.125 479.1136 28.5707 478.4652 28.0164 477.8168 27.4453 477.1488 22.9659 470.6475 23.3254 463.6797 24 456.0511 25.6809 449.3915 30.4638 444.8656 36 441.0511 40.0551 439.1071 43.648 438.673 48.1172 438.3753 49.5318 438.2723 50.9463 438.1684 52.3608 438.0638 53.466 437.9853 53.466 437.9853 54.5934 437.9052 103.3975 434.341 150.4627 415.5292 183.457 378.2074 223.0372 332.2723 231.2078 281.992 231.1014 223.2391 231.0951 219.1419 231.0945 215.0447 231.0934 210.9475 231.0903 203.2204 231.0821 195.4932 231.072 187.7661 231.0608 178.9557 231.0553 170.1453 231.0503 161.3348 231.0399 143.2402 231.0224 125.1457 231 107.0511 230.2012 107.8588 229.4024 108.6664 228.5795 109.4986 221.0428 117.1164 213.4955 124.7236 205.9378 132.3205 202.0529 136.2263 198.1717 140.1358 194.2991 144.0538 190.5602 147.8362 186.8115 151.6087 183.056 155.3746 181.6264 156.8116 180.2003 158.2521 178.7778 159.6962 176.7817 161.7215 174.7732 163.7339 172.7615 165.7437 172.1788 166.3407 171.5962 166.9378 170.9959 167.5529 165.3895 173.1039 160.1264 175.4795 152.0625 175.4886 144.8195 175.2968 140.294 174.188 135.0352 169.18 129.7861 163.5016 127.7115 159.0801 127.625 151.2386 127.5966 150.0772 127.5683 148.9157 127.5391 147.7191 128.7899 137.7652 135.6406 131.8354 142.4407 125.0928 143.5145 124.0136 144.5874 122.9336 145.6596 121.8527 148.5595 118.9346 151.4719 116.0292 154.3873 113.1265 157.4436 110.0804 160.4901 107.0244 163.5383 103.97 168.6564 98.8446 173.783 93.7276 178.9143 88.6153 184.8397 82.7117 190.7505 76.7938 196.6539 70.8684 201.7321 65.7721 206.818 60.6836 211.9104 55.6016 214.948 52.5703 217.9828 49.5364 221.0106 46.4953 223.8572 43.6372 226.7134 40.789 229.5773 37.9482 230.6243 36.9064 231.6681 35.8612 232.7081 34.8123 240.0371 27.4267 245.1216 22.6258 255.9375 22.6136Z"/>
</svg>